<svg xmlns="http://www.w3.org/2000/svg" width="212" height="212" viewBox="0 0 212 212">
  <g id="Group_2" data-name="Group 2" transform="translate(-844 -481)">
    <rect id="Rectangle_2" data-name="Rectangle 2" width="212" height="212" rx="14" transform="translate(844 481)" fill="#00dc82"/>
    <path id="Subtraction_1" data-name="Subtraction 1" d="M200,212.328H12a12,12,0,0,1-12-12v-188a12,12,0,0,1,12-12H99.367L1.417,200.141,212,100.346v99.982a12,12,0,0,1-12,12ZM177.471,156h0l-28.626,15.49v7.435h39.436L177.471,156ZM67.95,137.58l30.708-74.1,24.983,51.012L67.952,137.579Zm85.837-30.225h0L99.694.329H200a12,12,0,0,1,12,12V86.215l-58.213,21.14Z" transform="translate(844 480.672)" fill="#003543"/>
  </g>
</svg>
